<?xml version="1.0" encoding="UTF-8" standalone="no"?>
<svg
   xmlns:dc="http://purl.org/dc/elements/1.1/"
   xmlns:cc="http://creativecommons.org/ns#"
   xmlns:rdf="http://www.w3.org/1999/02/22-rdf-syntax-ns#"
   xmlns:svg="http://www.w3.org/2000/svg"
   xmlns="http://www.w3.org/2000/svg"
   xmlns:sodipodi="http://sodipodi.sourceforge.net/DTD/sodipodi-0.dtd"
   xmlns:inkscape="http://www.inkscape.org/namespaces/inkscape"
   version="1.1"
   id="svg2"
   xml:space="preserve"
   width="117.18613"
   height="19.373734"
   viewBox="0 0 117.18613 19.373734"
   sodipodi:docname="logo_winiadimchae@3x.ai"><metadata
     id="metadata8"><rdf:RDF><cc:Work
         rdf:about=""><dc:format>image/svg+xml</dc:format><dc:type
           rdf:resource="http://purl.org/dc/dcmitype/StillImage" /></cc:Work></rdf:RDF></metadata><defs
     id="defs6"><clipPath
       clipPathUnits="userSpaceOnUse"
       id="clipPath20"><path
         d="M 0,14.53 H 87.89 V 0 H 0 Z"
         id="path18" /></clipPath></defs><sodipodi:namedview
     pagecolor="#ffffff"
     bordercolor="#666666"
     borderopacity="1"
     objecttolerance="10"
     gridtolerance="10"
     guidetolerance="10"
     inkscape:pageopacity="0"
     inkscape:pageshadow="2"
     inkscape:window-width="640"
     inkscape:window-height="480"
     id="namedview4" /><g
     id="g10"
     inkscape:groupmode="layer"
     inkscape:label="logo_winiadimchae@3x"
     transform="matrix(1.3333333,0,0,-1.3333333,0,19.373733)"><path
       d="M 0,0.003 H 3.709 V 5.9 H 0 Z"
       style="fill:#231f20;fill-opacity:1;fill-rule:nonzero;stroke:none"
       id="path12" /><g
       id="g14"><g
         id="g16"
         clip-path="url(#clipPath20)"><g
           id="g22"
           transform="translate(8.2061,14.5283)"><path
             d="m 0,0 h -4.497 v -8.629 h 3.925 v -5.896 H 0 c 3.309,0 5.994,3.252 5.994,7.263 C 5.994,-3.252 3.309,0 0,0"
             style="fill:#231f20;fill-opacity:1;fill-rule:nonzero;stroke:none"
             id="path24" /></g><g
           id="g26"
           transform="translate(29.1738,6.208)"><path
             d="m 0,0 h -11.266 v -1.657 h 4.913 v -4.548 h 1.655 v 4.548 H 0 V -6.205 H 1.656 V 8.32 H 0 Z"
             style="fill:#231f20;fill-opacity:1;fill-rule:nonzero;stroke:none"
             id="path28" /></g><g
           id="g30"
           transform="translate(23.6475,12.5)"><path
             d="m 0,0 c 1.25,0 2.586,-0.506 2.586,-1.924 0,-1.17 -1.014,-1.924 -2.586,-1.924 -1.191,0 -2.584,0.504 -2.584,1.924 C -2.584,-0.506 -1.249,0 0,0 m 0,-5.341 c 2.613,0 4.301,1.341 4.301,3.417 0,2.107 -1.649,3.416 -4.301,3.416 -2.65,0 -4.298,-1.309 -4.298,-3.416 0,-2.076 1.69,-3.417 4.298,-3.417"
             style="fill:#231f20;fill-opacity:1;fill-rule:nonzero;stroke:none"
             id="path32" /></g><g
           id="g34"
           transform="translate(42.3408,4.3193)"><path
             d="M 0,0 H -7.912 V 8.602 H -9.565 V -1.656 H 0 v -2.66 h 1.653 v 14.525 l -1.653,0 z"
             style="fill:#231f20;fill-opacity:1;fill-rule:nonzero;stroke:none"
             id="path36" /></g><g
           id="g38"
           transform="translate(57.2627,8.0937)"><path
             d="M 0,0 V 6.435 H -1.655 V -8.089 H 0 v 6.436 H 2.525 V 0 Z"
             style="fill:#231f20;fill-opacity:1;fill-rule:nonzero;stroke:none"
             id="path40" /></g><g
           id="g42"
           transform="translate(49.6211,4.335)"><path
             d="m 0,0 c -1.478,0 -2.434,1.357 -2.434,3.459 0,2.1 0.956,3.459 2.434,3.459 1.794,0 2.433,-1.787 2.433,-3.459 C 2.433,1.787 1.794,0 0,0 m 0,8.586 c -2.455,0 -4.041,-2.013 -4.041,-5.127 0,-3.118 1.586,-5.131 4.041,-5.131 2.492,0 4.04,1.966 4.04,5.131 0,3.162 -1.548,5.127 -4.04,5.127"
             style="fill:#231f20;fill-opacity:1;fill-rule:nonzero;stroke:none"
             id="path44" /></g><g
           id="g46"
           transform="translate(78.2012,6.8311)"><path
             d="M 0,0 2.572,-4.166 H 4.431 L 0.828,1.654 V 4.598 H 4.131 V 6.107 H -4.191 V 4.598 h 3.365 V 1.656 L -4.39,-4 -4.493,-4.166 h 1.859 z"
             style="fill:#231f20;fill-opacity:1;fill-rule:nonzero;stroke:none"
             id="path48" /></g><g
           id="g50"
           transform="translate(79.0293,12.9238)"><path
             d="M 0,0 V 1.223 H -1.654 V 0"
             style="fill:#231f20;fill-opacity:1;fill-rule:nonzero;stroke:none"
             id="path52" /></g><path
           d="m 71.067,5.89 h 1.715 v 8.639 h -1.715 z"
           style="fill:#231f20;fill-opacity:1;fill-rule:nonzero;stroke:none"
           id="path54" /><path
           d="m 71.136,1.464 h -6.897 v 2.379 h 6.897 z M 62.593,0.005 H 72.782 V 5.302 H 62.593 Z"
           style="fill:#231f20;fill-opacity:1;fill-rule:nonzero;stroke:none"
           id="path56" /><g
           id="g58"
           transform="translate(70.0586,8.5205)"><path
             d="m 0,0 h -7.393 v 3.293 h 6.554 V 4.946 H -9.047 V -1.656 H 0 Z"
             style="fill:#231f20;fill-opacity:1;fill-rule:nonzero;stroke:none"
             id="path60" /></g><g
           id="g62"
           transform="translate(87.8906,0.0049)"><path
             d="M 0,0 V 14.525 H -1.657 V 8.092 h -1.645 v 6.433 H -4.957 V 0 h 1.655 v 6.437 h 1.645 l 0,-6.437 z"
             style="fill:#231f20;fill-opacity:1;fill-rule:nonzero;stroke:none"
             id="path64" /></g></g></g></g></svg>
